<svg width="17" height="17" viewBox="0 0 17 17" fill="none" xmlns="http://www.w3.org/2000/svg">
<path d="M8.49771 4.13868C6.08425 4.13868 4.13648 6.08649 4.13648 8.5C4.13648 10.9135 6.08425 12.8613 8.49771 12.8613C10.9112 12.8613 12.859 10.9135 12.859 8.5C12.859 6.08649 10.9112 4.13868 8.49771 4.13868ZM8.49771 11.3345C6.93694 11.3345 5.66323 10.0608 5.66323 8.5C5.66323 6.9392 6.93694 5.66546 8.49771 5.66546C10.0585 5.66546 11.3322 6.9392 11.3322 8.5C11.3322 10.0608 10.0585 11.3345 8.49771 11.3345ZM13.0376 2.94362C12.4741 2.94362 12.019 3.39868 12.019 3.96218C12.019 4.52569 12.4741 4.98075 13.0376 4.98075C13.6011 4.98075 14.0561 4.52782 14.0561 3.96218C14.0563 3.82838 14.0301 3.69585 13.9789 3.5722C13.9278 3.44854 13.8528 3.33619 13.7582 3.24158C13.6636 3.14696 13.5512 3.07194 13.4276 3.02081C13.3039 2.96968 13.1714 2.94345 13.0376 2.94362ZM16.9991 8.5C16.9991 7.32621 17.0097 6.16305 16.9438 4.99138C16.8778 3.63046 16.5674 2.42264 15.5722 1.42747C14.575 0.430173 13.3693 0.121839 12.0084 0.0559198C10.8346 -0.00999972 9.67149 0.000632496 8.49984 0.000632496C7.32607 0.000632496 6.16293 -0.00999972 4.99129 0.0559198C3.63039 0.121839 2.4226 0.432299 1.42745 1.42747C0.430165 2.42477 0.121837 3.63046 0.0559188 4.99138C-0.00999953 6.16517 0.000632484 7.32833 0.000632484 8.5C0.000632484 9.67167 -0.00999953 10.837 0.0559188 12.0086C0.121837 13.3695 0.432291 14.5774 1.42745 15.5725C2.42473 16.5698 3.63039 16.8782 4.99129 16.9441C6.16506 17.01 7.3282 16.9994 8.49984 16.9994C9.67361 16.9994 10.8368 17.01 12.0084 16.9441C13.3693 16.8782 14.5771 16.5677 15.5722 15.5725C16.5695 14.5752 16.8778 13.3695 16.9438 12.0086C17.0118 10.837 16.9991 9.67379 16.9991 8.5ZM15.1278 13.5141C14.9726 13.9011 14.7855 14.1903 14.4857 14.488C14.1858 14.7879 13.8988 14.975 13.5118 15.1302C12.3933 15.5747 9.7374 15.4747 8.49771 15.4747C7.25803 15.4747 4.60003 15.5747 3.48154 15.1324C3.09454 14.9771 2.80535 14.79 2.50765 14.4902C2.20783 14.1903 2.02071 13.9033 1.86548 13.5163C1.42319 12.3956 1.52313 9.73971 1.52313 8.5C1.52313 7.26029 1.42319 4.60224 1.86548 3.48374C2.02071 3.09672 2.20783 2.80753 2.50765 2.50983C2.80748 2.21213 3.09454 2.02287 3.48154 1.86764C4.60003 1.42535 7.25803 1.52529 8.49771 1.52529C9.7374 1.52529 12.3954 1.42535 13.5139 1.86764C13.9009 2.02287 14.1901 2.21 14.4878 2.50983C14.7876 2.80966 14.9747 3.09672 15.1299 3.48374C15.5722 4.60224 15.4723 7.26029 15.4723 8.5C15.4723 9.73971 15.5722 12.3956 15.1278 13.5141Z" fill="#9B6B4E"/>
</svg>
