<svg width="17" height="17" viewBox="0 0 17 17" fill="none" xmlns="http://www.w3.org/2000/svg">
<path d="M11.7502 11.4055L11.2618 12.1381C11.1643 12.2843 11.0354 12.409 10.8655 12.4539C10.309 12.601 8.83148 12.6674 6.58205 10.418C4.33263 8.16854 4.39902 6.69104 4.54607 6.13452C4.59096 5.96462 4.71573 5.8357 4.86195 5.73822L5.5945 5.24985C6.1399 4.88625 6.28728 4.14936 5.92368 3.60396L4.54013 1.52864C4.22277 1.05259 3.61094 0.870712 3.08506 1.09609L2.46094 1.36357C1.98682 1.56676 1.60007 1.93143 1.36939 2.3928C1.17666 2.77826 1.02728 3.18417 1.00704 3.61465C0.943255 4.97127 1.24073 8.31356 4.96359 12.0364C8.68646 15.7593 12.0287 16.0567 13.3853 15.993C13.8158 15.9727 14.2217 15.8233 14.6072 15.6306C15.0686 15.3999 15.4332 15.0132 15.6364 14.5391L15.9039 13.9149C16.1293 13.3891 15.9474 12.7772 15.4714 12.4599L13.396 11.0763C12.8506 10.7127 12.1138 10.8601 11.7502 11.4055Z" stroke="#9B6B4E" stroke-width="1.5"/>
</svg>
